<?xml version="1.0" encoding="utf-8"?>
<svg version="1.1" id="Layer_1" xmlns="http://www.w3.org/2000/svg" xmlns:xlink="http://www.w3.org/1999/xlink" x="0px" y="0px" viewBox="0 0 253 253" style="enable-background:new 0 0 253 253;" xml:space="preserve">
<style type="text/css">
	.st0{opacity:0.92;}
	.st1{opacity:0.84;}
	.st2{opacity:0.2;}
	.st3{opacity:0.12;}
	.st4{opacity:0.44;}
	.st5{opacity:0.68;}
	.st6{opacity:0.28;}
	.st7{opacity:0.36;}
	.st8{opacity:0.52;}
	.st9{opacity:0.6;}
	.st10{opacity:0.76;}


	.ring-base-color { fill:#00B2E8; }
	.s-color { fill:#00B2E8; }

	@keyframes throbber-spin {
		0% { transform: rotate(0deg); }
		100% { transform: rotate(359deg); }
	}

	.throbber-spin {
		transform-origin: 50% 50%;
		animation: throbber-spin 2s linear infinite;
	}

	@keyframes s-spin {
		0% { transform: rotate(-40deg); }
		50% { transform: rotate(60deg); }
		100% { transform: rotate(-40deg); }

	}

	.s-spin {
		transform-origin: 50% 50%;
		animation: s-spin 2s ease-in-out infinite;
	}

</style>
<g class="throbber-spin">
	<g class="st0 ring-base-color">
		<path d="M49.2,83.4c7-12.6,17-23.3,29-31.1l-19-33c-17.8,11.3-32.6,26.8-43,45.1L49.2,83.4z"/>
	</g>
	<g class="st1 ring-base-color">
		<path d="M38,126.5c0-13.8,3.2-26.9,8.8-38.6l-33-19.1C5,86.1,0,105.7,0,126.5c0,0.7,0,1.3,0,2h38C38.1,127.8,38,127.1,38,126.5z"
			/>
	</g>
	<g class="st2 ring-base-color">
		<path d="M203.8,83.4l33-19c-10.4-18.4-25.1-33.9-42.9-45.1l-19,33C186.8,60.2,196.8,70.9,203.8,83.4z"/>
	</g>
	<g class="st3 ring-base-color">
		<path d="M129,38c15.1,0.4,29.2,4.6,41.5,11.7l19-32.9C171.7,6.5,151,0.4,129,0V38z"/>
	</g>
	<g class="st4 ring-base-color">
		<path d="M199.7,176.1c-7.4,11-17.3,20.1-28.8,26.8l19,32.9c17.3-10,31.9-24,42.7-40.7L199.7,176.1z"/>
	</g>
	<g class="st5 ring-base-color">
		<path d="M53.3,176.1l-33,19.1c10.8,16.7,25.5,30.7,42.7,40.7L82,203C70.6,196.3,60.7,187.1,53.3,176.1z"/>
	</g>
	<g class="st6 ring-base-color">
		<path d="M239.1,68.8l-33,19.1c5.7,11.7,8.8,24.8,8.8,38.6c0,0.7,0,1.3,0,2h38c0-0.7,0-1.3,0-2C253,105.7,248,86.1,239.1,68.8z"/>
	</g>
	<g class="st7 ring-base-color">
		<path d="M214.7,133.5c-1.1,14-5.4,27-12.3,38.4l32.9,19c10.1-17,16.3-36.6,17.4-57.5h-38V133.5z"/>
	</g>
	<g class="st8 ring-base-color">
		<path d="M166.6,205.4c-11.3,5.8-24.1,9.2-37.6,9.5v38c20.4-0.4,39.7-5.6,56.6-14.6L166.6,205.4z"/>
	</g>
	<g>
		<path class="ring-base-color" d="M82.5,49.7c12.3-7,26.4-11.2,41.5-11.7V0c-22,0.4-42.7,6.5-60.5,16.8L82.5,49.7z"/>
	</g>
	<g class="st9 ring-base-color">
		<path d="M124,214.9c-13.5-0.4-26.2-3.8-37.6-9.5l-19,33c16.9,9,36.2,14.2,56.6,14.6V214.9z"/>
	</g>
	<g class="st10 ring-base-color">
		<path d="M50.6,171.9c-6.8-11.4-11.2-24.5-12.3-38.4H0.2C1.3,154.4,7.6,174,17.6,191L50.6,171.9z"/>
	</g>
</g>

<g class="s-spin">
	<!--
	<path class="st11 s-color" d="M101.2,146.1c0.6,6.9,3.3,12,8,14.8c4.6,2.8,10.2,4.2,16.5,4.2c2.4,0,4.9-0.2,7.7-0.6c2.8-0.5,5.7-1.1,8.2-1.9
		c2.5-1.1,4.6-2.4,6.1-4.4c1.6-2,2.4-4.4,2.2-7.4c-0.2-3.1-1.3-5.7-3.3-7.5s-4.9-3.6-8.2-4.7s-7.1-2.2-11.2-3.1
		c-4.2-0.8-8.5-1.7-12.7-2.7c-4.4-1.1-8.8-2.2-12.9-3.6c-4.1-1.4-7.9-3.3-11-5.7c-3.3-2.4-6-5.3-7.9-9.1c-1.9-3.8-3-8.3-3-13.8
		c0-5.8,1.4-10.9,4.4-14.8c3-3.9,6.4-7.2,11-9.7c4.4-2.4,9.3-4.1,14.8-5.2c5.3-1.1,10.5-1.4,15.4-1.4c5.7,0,11,0.6,16,1.9
		c5.2,1.1,9.7,3.1,13.8,5.8s7.5,6.1,10.2,10.4c2.7,4.2,4.4,9.4,5.2,15.4h-25.2c-1.1-5.7-3.8-9.6-7.9-11.5s-8.8-3-14.2-3
		c-1.7,0-3.6,0.2-6,0.5c-2.4,0.2-4.4,0.8-6.4,1.6c-2,0.8-3.8,1.9-5.2,3.3c-1.4,1.4-2,3.5-2,5.8c0,3,1.1,5.3,3.1,7.1
		c2,1.9,4.7,3.3,8,4.4s7.1,2.2,11.2,3.1c4.2,0.8,8.5,1.7,13.1,2.7c4.2,1.1,8.5,2.2,12.7,3.6c4.2,1.4,7.9,3.3,11.2,5.7
		c3.3,2.4,6,5.3,8,9s3.1,8.2,3.1,13.5c0,6.4-1.4,12-4.4,16.4c-3,4.4-6.8,8.2-11.5,11c-4.7,2.8-9.9,4.9-15.7,6.1
		c-5.7,1.3-11.5,1.9-17,1.9c-6.9,0-13.2-0.8-19-2.4c-5.8-1.4-10.9-3.9-15.1-7.1c-4.2-3.1-7.7-7.1-10.1-11.8
		c-2.4-4.7-3.8-10.2-3.9-16.7L101.2,146.1L101.2,146.1z"/>
	-->
</g>
</svg>
